<svg width="67" height="52" viewBox="0 0 67 52" fill="none" xmlns="http://www.w3.org/2000/svg">
<path d="M12.9902 21.4653L29.3483 0.784311C29.6909 0.351148 30.3206 0.27665 30.7549 0.617915L49.2714 15.1702C49.7057 15.5115 49.7799 16.1393 49.4373 16.5724L33.0793 37.2534C32.7366 37.6865 32.1069 37.761 31.6726 37.4198L13.1561 22.8675C12.7219 22.5262 12.6476 21.8984 12.9902 21.4653Z" fill="#FF5733" fill-opacity="0.53" stroke="#FF5733" stroke-width="0.1"/>
<path d="M40.7942 44.3334V18C40.7942 17.4477 41.2419 17 41.7942 17H65.3763C65.9286 17 66.3763 17.4477 66.3763 18V44.3334C66.3763 44.8856 65.9286 45.3334 65.3763 45.3334H41.7942C41.2419 45.3334 40.7942 44.8856 40.7942 44.3334Z" fill="#FF5733" fill-opacity="0.15" stroke="#FFA693" stroke-width="0.1"/>
<path d="M1 50V23.6667C1 23.1144 1.44772 22.6667 2 22.6667H28.4245C28.9768 22.6667 29.4245 23.1144 29.4245 23.6667V50C29.4245 50.5523 28.9768 51 28.4245 51H2C1.44772 51 1 50.5523 1 50Z" fill="#FF5733" stroke="#FF5733" stroke-width="0.1"/>
</svg>
