<svg width="203" height="68" viewBox="0 0 203 68" fill="none" xmlns="http://www.w3.org/2000/svg">
<path d="M15 17H52.5C54.9853 17 57 19.0147 57 21.5V21.5C57 23.9853 54.9853 26 52.5 26H24C19.0294 26 15 21.9706 15 17V17Z" fill="#FD446E"/>
<path d="M16 52.5C16 50.0147 18.0147 48 20.5 48H48C52.9706 48 57 52.0294 57 57V57H20.5C18.0147 57 16 54.9853 16 52.5V52.5Z" fill="#298FE4"/>
<path d="M57.0805 48.2211C52.1099 48.2211 48.0805 44.1916 48.0805 39.2211V21.523C48.0805 19.0377 50.0952 17.023 52.5805 17.023V17.023C55.0657 17.023 57.0805 19.0377 57.0805 21.523V48.2211V48.2211Z" fill="#FFCA27"/>
<path d="M19.6568 56.3982C17.1715 56.411 15.1464 54.4067 15.1336 51.9215L15 26.0465V26.0465C19.9705 26.0208 24.0207 30.0294 24.0463 34.9999L24.1335 51.875C24.1463 54.3603 22.142 56.3853 19.6568 56.3982V56.3982Z" fill="#29E47F"/>
<circle cx="52.5" cy="21.5" r="2.5" fill="#FD446E"/>
<circle cx="19.5" cy="52.5" r="2.5" fill="#298FE4"/>
<path d="M74.4 50.28C72.4533 50.28 70.6933 49.9467 69.12 49.28C67.5733 48.6133 66.3467 47.6533 65.44 46.4C64.5333 45.1467 64.0667 43.6667 64.04 41.96H70.04C70.12 43.1067 70.52 44.0133 71.24 44.68C71.9867 45.3467 73 45.68 74.28 45.68C75.5867 45.68 76.6133 45.3733 77.36 44.76C78.1067 44.12 78.48 43.2933 78.48 42.28C78.48 41.4533 78.2267 40.7733 77.72 40.24C77.2133 39.7067 76.5733 39.2933 75.8 39C75.0533 38.68 74.0133 38.3333 72.68 37.96C70.8667 37.4267 69.3867 36.9067 68.24 36.4C67.12 35.8667 66.1467 35.08 65.32 34.04C64.52 32.9733 64.12 31.56 64.12 29.8C64.12 28.1467 64.5333 26.7067 65.36 25.48C66.1867 24.2533 67.3467 23.32 68.84 22.68C70.3333 22.0133 72.04 21.68 73.96 21.68C76.84 21.68 79.1733 22.3867 80.96 23.8C82.7733 25.1867 83.7733 27.1333 83.96 29.64H77.8C77.7467 28.68 77.3333 27.8933 76.56 27.28C75.8133 26.64 74.8133 26.32 73.56 26.32C72.4667 26.32 71.5867 26.6 70.92 27.16C70.28 27.72 69.96 28.5333 69.96 29.6C69.96 30.3467 70.2 30.9733 70.68 31.48C71.1867 31.96 71.8 32.36 72.52 32.68C73.2667 32.9733 74.3067 33.32 75.64 33.72C77.4533 34.2533 78.9333 34.7867 80.08 35.32C81.2267 35.8533 82.2133 36.6533 83.04 37.72C83.8667 38.7867 84.28 40.1867 84.28 41.92C84.28 43.4133 83.8933 44.8 83.12 46.08C82.3467 47.36 81.2133 48.3867 79.72 49.16C78.2267 49.9067 76.4533 50.28 74.4 50.28ZM94.735 45.56H103.935V50H89.135V22.08H94.735V45.56ZM127.854 30.72C127.854 32.2133 127.494 33.6133 126.774 34.92C126.081 36.2267 124.974 37.28 123.454 38.08C121.961 38.88 120.068 39.28 117.774 39.28H113.094V50H107.494V22.08H117.774C119.934 22.08 121.774 22.4533 123.294 23.2C124.814 23.9467 125.948 24.9733 126.694 26.28C127.468 27.5867 127.854 29.0667 127.854 30.72ZM117.534 34.76C119.081 34.76 120.228 34.4133 120.974 33.72C121.721 33 122.094 32 122.094 30.72C122.094 28 120.574 26.64 117.534 26.64H113.094V34.76H117.534Z" fill="white"/>
<path d="M134.285 35.125C134.915 33.795 135.884 32.71 137.19 31.87C138.52 31.03 140.084 30.61 141.88 30.61C143.63 30.61 145.194 31.0183 146.57 31.835C147.947 32.6283 149.02 33.7717 149.79 35.265C150.584 36.735 150.98 38.45 150.98 40.41C150.98 42.37 150.584 44.0967 149.79 45.59C149.02 47.0833 147.935 48.2383 146.535 49.055C145.159 49.8717 143.607 50.28 141.88 50.28C140.06 50.28 138.485 49.8717 137.155 49.055C135.849 48.215 134.892 47.13 134.285 45.8V50H131.87V24.1H134.285V35.125ZM148.495 40.41C148.495 38.8233 148.18 37.4583 147.55 36.315C146.944 35.1483 146.104 34.2617 145.03 33.655C143.957 33.0483 142.744 32.745 141.39 32.745C140.084 32.745 138.882 33.06 137.785 33.69C136.712 34.32 135.86 35.2183 135.23 36.385C134.6 37.5517 134.285 38.905 134.285 40.445C134.285 41.985 134.6 43.3383 135.23 44.505C135.86 45.6717 136.712 46.57 137.785 47.2C138.882 47.83 140.084 48.145 141.39 48.145C142.744 48.145 143.957 47.8417 145.03 47.235C146.104 46.605 146.944 45.7067 147.55 44.54C148.18 43.35 148.495 41.9733 148.495 40.41ZM163.853 50.28C162.057 50.28 160.435 49.8833 158.988 49.09C157.565 48.2733 156.433 47.13 155.593 45.66C154.777 44.1667 154.368 42.4283 154.368 40.445C154.368 38.4617 154.788 36.735 155.628 35.265C156.468 33.7717 157.612 32.6283 159.058 31.835C160.505 31.0183 162.127 30.61 163.923 30.61C165.72 30.61 167.342 31.0183 168.788 31.835C170.258 32.6283 171.402 33.7717 172.218 35.265C173.058 36.735 173.478 38.4617 173.478 40.445C173.478 42.405 173.058 44.1317 172.218 45.625C171.378 47.1183 170.223 48.2733 168.753 49.09C167.283 49.8833 165.65 50.28 163.853 50.28ZM163.853 48.145C165.113 48.145 166.28 47.865 167.353 47.305C168.427 46.7217 169.29 45.8583 169.943 44.715C170.62 43.5483 170.958 42.125 170.958 40.445C170.958 38.765 170.632 37.3533 169.978 36.21C169.325 35.0433 168.462 34.18 167.388 33.62C166.315 33.0367 165.148 32.745 163.888 32.745C162.628 32.745 161.462 33.0367 160.388 33.62C159.315 34.18 158.452 35.0433 157.798 36.21C157.168 37.3533 156.853 38.765 156.853 40.445C156.853 42.125 157.168 43.5483 157.798 44.715C158.452 45.8583 159.303 46.7217 160.353 47.305C161.427 47.865 162.593 48.145 163.853 48.145ZM187.955 50L183.02 42.3L178.26 50H175.67L181.83 40.445L175.74 30.89H178.505L183.37 38.485L188.095 30.89H190.65L184.56 40.34L190.72 50H187.955Z" fill="#BAB8B8"/>
</svg>
