<svg width="219" height="127" viewBox="0 0 219 127" fill="none" xmlns="http://www.w3.org/2000/svg">
<path d="M88.568 60.448V58.432C88.568 57.536 88.6747 56.736 88.888 56.032C89.1013 55.328 89.3893 54.752 89.752 54.304C90.1147 53.856 90.5627 53.4933 91.096 53.216C91.6507 52.9173 92.2267 52.7147 92.824 52.608C93.4427 52.48 94.136 52.4053 94.904 52.384C96.5253 52.3413 98.2 52.416 99.928 52.608C101.656 52.8 103 53.0347 103.96 53.312V56.832C101.528 56.6187 98.9147 56.512 96.12 56.512C94.9893 56.4907 94.1893 56.6187 93.72 56.896C93.272 57.152 93.048 57.7813 93.048 58.784V59.936C93.048 60.832 93.2293 61.4293 93.592 61.728C93.9547 62.0267 94.6053 62.176 95.544 62.176H99.256C99.8107 62.176 100.323 62.2293 100.792 62.336C101.283 62.4427 101.699 62.592 102.04 62.784C102.403 62.976 102.723 63.2 103 63.456C103.299 63.712 103.544 64 103.736 64.32C103.949 64.64 104.12 64.9707 104.248 65.312C104.397 65.632 104.504 65.9733 104.568 66.336C104.653 66.6987 104.707 67.0507 104.728 67.392C104.771 67.712 104.792 68.0427 104.792 68.384V69.952C104.792 70.976 104.664 71.872 104.408 72.64C104.152 73.408 103.821 74.016 103.416 74.464C103.032 74.912 102.541 75.2747 101.944 75.552C101.368 75.8293 100.792 76.0107 100.216 76.096C99.64 76.2027 99.0107 76.256 98.328 76.256C94.4667 76.256 91.448 75.936 89.272 75.296V71.776C91.6187 72.0107 94.3387 72.128 97.432 72.128C97.8373 72.128 98.1787 72.1067 98.456 72.064C98.7547 72.0213 99.0533 71.936 99.352 71.808C99.672 71.68 99.9067 71.4773 100.056 71.2C100.227 70.9013 100.312 70.5387 100.312 70.112V68.864C100.312 68.1173 100.163 67.5627 99.864 67.2C99.5653 66.8373 99.0107 66.656 98.2 66.656H94.616C90.584 66.6347 88.568 64.5653 88.568 60.448ZM107.795 71.456V52.576H112.275V70.208C112.275 70.6133 112.318 70.944 112.403 71.2C112.51 71.4347 112.68 71.5947 112.915 71.68C113.171 71.7653 113.374 71.8187 113.523 71.84C113.672 71.8613 113.918 71.872 114.259 71.872H122.291V76H112.659C109.416 76 107.795 74.4853 107.795 71.456ZM124.757 76V52.576H134.837C135.498 52.576 136.096 52.6293 136.629 52.736C137.184 52.8213 137.76 53.0133 138.357 53.312C138.976 53.6107 139.488 54.016 139.893 54.528C140.32 55.04 140.661 55.744 140.917 56.64C141.194 57.536 141.333 58.592 141.333 59.808C141.333 60.6613 141.269 61.4507 141.141 62.176C141.034 62.9013 140.885 63.52 140.693 64.032C140.501 64.5227 140.266 64.9707 139.989 65.376C139.712 65.76 139.413 66.0693 139.093 66.304C138.773 66.5173 138.432 66.7093 138.069 66.88C137.706 67.0507 137.344 67.168 136.981 67.232C136.618 67.2747 136.256 67.3173 135.893 67.36C135.53 67.3813 135.178 67.3813 134.837 67.36C134.218 67.3173 133.152 67.2107 131.637 67.04C130.122 66.8693 129.322 66.7627 129.237 66.72V76H124.757ZM129.237 63.392H134.485C135.253 63.392 135.829 63.136 136.213 62.624C136.618 62.112 136.821 61.184 136.821 59.84C136.8 57.6427 136.021 56.544 134.485 56.544H129.237V63.392ZM144.935 76V52.576H153.959C156.071 52.576 157.607 53.1947 158.567 54.432C159.548 55.6693 160.039 57.0773 160.039 58.656C160.039 61.4933 159.058 63.2213 157.095 63.84C157.906 64.032 158.62 64.608 159.239 65.568C159.858 66.5067 160.167 67.808 160.167 69.472C160.167 70.3467 160.071 71.1573 159.879 71.904C159.687 72.6293 159.367 73.312 158.919 73.952C158.471 74.592 157.82 75.0933 156.967 75.456C156.135 75.8187 155.132 76 153.959 76H144.935ZM147.335 73.632H153.959C156.519 73.632 157.799 72.224 157.799 69.408C157.799 68.128 157.479 67.0613 156.839 66.208C156.199 65.3547 155.239 64.928 153.959 64.928H147.335V73.632ZM147.335 62.56H153.959C156.434 62.56 157.671 61.2587 157.671 58.656C157.671 56.1813 156.434 54.944 153.959 54.944H147.335V62.56ZM163.518 64.448C163.518 62.656 163.614 61.0987 163.806 59.776C163.998 58.432 164.296 57.3227 164.702 56.448C165.107 55.5733 165.544 54.8693 166.014 54.336C166.504 53.7813 167.123 53.3653 167.87 53.088C168.616 52.8107 169.342 52.6293 170.046 52.544C170.75 52.4587 171.603 52.416 172.606 52.416C173.48 52.416 174.227 52.448 174.846 52.512C175.486 52.576 176.136 52.704 176.798 52.896C177.48 53.088 178.046 53.3547 178.494 53.696C178.942 54.0373 179.379 54.5067 179.806 55.104C180.232 55.7013 180.563 56.4267 180.798 57.28C181.054 58.112 181.256 59.1253 181.406 60.32C181.555 61.5147 181.63 62.8907 181.63 64.448C181.63 66.4747 181.491 68.2027 181.214 69.632C180.958 71.04 180.595 72.1707 180.126 73.024C179.678 73.8773 179.048 74.5387 178.238 75.008C177.448 75.456 176.627 75.7547 175.774 75.904C174.92 76.0533 173.864 76.128 172.606 76.128C171.539 76.128 170.643 76.0853 169.918 76C169.192 75.9147 168.456 75.744 167.71 75.488C166.963 75.2107 166.355 74.816 165.886 74.304C165.416 73.7707 164.99 73.0773 164.606 72.224C164.222 71.3707 163.944 70.304 163.774 69.024C163.603 67.7227 163.518 66.1973 163.518 64.448ZM165.886 64.448C165.886 66.5173 165.982 68.16 166.174 69.376C166.387 70.592 166.782 71.5307 167.358 72.192C167.955 72.8533 168.638 73.28 169.406 73.472C170.174 73.664 171.24 73.76 172.606 73.76C173.672 73.76 174.547 73.696 175.23 73.568C175.912 73.4187 176.531 73.1627 177.086 72.8C177.64 72.416 178.067 71.872 178.366 71.168C178.664 70.464 178.888 69.5787 179.038 68.512C179.187 67.424 179.262 66.0693 179.262 64.448C179.262 63.3813 179.23 62.432 179.166 61.6C179.102 60.7467 179.027 60 178.942 59.36C178.856 58.72 178.707 58.1653 178.494 57.696C178.28 57.2053 178.088 56.8 177.918 56.48C177.747 56.16 177.491 55.8933 177.15 55.68C176.808 55.4453 176.51 55.2747 176.254 55.168C176.019 55.04 175.656 54.9547 175.166 54.912C174.696 54.848 174.302 54.816 173.982 54.816C173.662 54.7947 173.203 54.784 172.606 54.784C172.008 54.784 171.55 54.7947 171.23 54.816C170.931 54.816 170.536 54.848 170.046 54.912C169.576 54.9547 169.214 55.04 168.958 55.168C168.702 55.2747 168.403 55.4453 168.062 55.68C167.72 55.8933 167.454 56.16 167.262 56.48C167.091 56.8 166.899 57.2053 166.686 57.696C166.472 58.1653 166.312 58.72 166.206 59.36C166.12 60 166.046 60.7467 165.982 61.6C165.918 62.4533 165.886 63.4027 165.886 64.448ZM184.503 52.576H187.095L192.855 62.4L198.743 52.576H201.335L194.423 64.128L201.175 76H198.583L192.855 66.144L187.191 76H184.599L191.286 64.128L184.503 52.576Z" fill="#4B4645"/>
<path d="M26.9902 54.4653L43.3483 33.7843C43.6909 33.3511 44.3206 33.2767 44.7549 33.6179L63.2714 48.1702C63.7057 48.5115 63.7799 49.1393 63.4373 49.5724L47.0793 70.2534C46.7366 70.6865 46.1069 70.761 45.6726 70.4198L27.1561 55.8675C26.7219 55.5262 26.6476 54.8984 26.9902 54.4653Z" fill="#FF5733" fill-opacity="0.53" stroke="#FF5733" stroke-width="0.1"/>
<path d="M54.7942 77.3334V51C54.7942 50.4477 55.2419 50 55.7942 50H79.3763C79.9286 50 80.3763 50.4477 80.3763 51V77.3334C80.3763 77.8856 79.9286 78.3334 79.3763 78.3334H55.7942C55.2419 78.3334 54.7942 77.8856 54.7942 77.3334Z" fill="#FF5733" fill-opacity="0.15" stroke="#FFA693" stroke-width="0.1"/>
<path d="M15 83V56.6667C15 56.1144 15.4477 55.6667 16 55.6667H42.4245C42.9768 55.6667 43.4245 56.1144 43.4245 56.6667V83C43.4245 83.5523 42.9768 84 42.4245 84H16C15.4477 84 15 83.5523 15 83Z" fill="#FF5733" stroke="#FF5733" stroke-width="0.1"/>
</svg>
