<svg width="2462" height="800" viewBox="0 0 2462 800" fill="none" xmlns="http://www.w3.org/2000/svg">
<path d="M959 553.5C934.667 553.5 912.667 549.333 893 541C873.667 532.667 858.333 520.667 847 505C835.667 489.333 829.833 470.833 829.5 449.5H904.5C905.5 463.833 910.5 475.167 919.5 483.5C928.833 491.833 941.5 496 957.5 496C973.833 496 986.667 492.167 996 484.5C1005.33 476.5 1010 466.167 1010 453.5C1010 443.167 1006.83 434.667 1000.5 428C994.167 421.333 986.167 416.167 976.5 412.5C967.167 408.5 954.167 404.167 937.5 399.5C914.833 392.833 896.333 386.333 882 380C868 373.333 855.833 363.5 845.5 350.5C835.5 337.167 830.5 319.5 830.5 297.5C830.5 276.833 835.667 258.833 846 243.5C856.333 228.167 870.833 216.5 889.5 208.5C908.167 200.167 929.5 196 953.5 196C989.5 196 1018.67 204.833 1041 222.5C1063.67 239.833 1076.17 264.167 1078.5 295.5H1001.5C1000.83 283.5 995.667 273.667 986 266C976.667 258 964.167 254 948.5 254C934.833 254 923.833 257.5 915.5 264.5C907.5 271.5 903.5 281.667 903.5 295C903.5 304.333 906.5 312.167 912.5 318.5C918.833 324.5 926.5 329.5 935.5 333.5C944.833 337.167 957.833 341.5 974.5 346.5C997.167 353.167 1015.67 359.833 1030 366.5C1044.33 373.167 1056.67 383.167 1067 396.5C1077.33 409.833 1082.5 427.333 1082.5 449C1082.5 467.667 1077.67 485 1068 501C1058.33 517 1044.17 529.833 1025.5 539.5C1006.83 548.833 984.667 553.5 959 553.5ZM1213.19 494.5H1328.19V550H1143.19V201H1213.19V494.5ZM1627.18 309C1627.18 327.667 1622.68 345.167 1613.68 361.5C1605.01 377.833 1591.18 391 1572.18 401C1553.51 411 1529.85 416 1501.18 416H1442.68V550H1372.68V201H1501.18C1528.18 201 1551.18 205.667 1570.18 215C1589.18 224.333 1603.35 237.167 1612.68 253.5C1622.35 269.833 1627.18 288.333 1627.18 309ZM1498.18 359.5C1517.51 359.5 1531.85 355.167 1541.18 346.5C1550.51 337.5 1555.18 325 1555.18 309C1555.18 275 1536.18 258 1498.18 258H1442.68V359.5H1498.18Z" fill="white"/>
<path d="M1709.43 358.75C1717.53 341.65 1729.98 327.7 1746.78 316.9C1763.88 306.1 1783.98 300.7 1807.08 300.7C1829.58 300.7 1849.68 305.95 1867.38 316.45C1885.08 326.65 1898.88 341.35 1908.78 360.55C1918.98 379.45 1924.08 401.5 1924.08 426.7C1924.08 451.9 1918.98 474.1 1908.78 493.3C1898.88 512.5 1884.93 527.35 1866.93 537.85C1849.23 548.35 1829.28 553.6 1807.08 553.6C1783.68 553.6 1763.43 548.35 1746.33 537.85C1729.53 527.05 1717.23 513.1 1709.43 496V550H1678.38V217H1709.43V358.75ZM1892.13 426.7C1892.13 406.3 1888.08 388.75 1879.98 374.05C1872.18 359.05 1861.38 347.65 1847.58 339.85C1833.78 332.05 1818.18 328.15 1800.78 328.15C1783.98 328.15 1768.53 332.2 1754.43 340.3C1740.63 348.4 1729.68 359.95 1721.58 374.95C1713.48 389.95 1709.43 407.35 1709.43 427.15C1709.43 446.95 1713.48 464.35 1721.58 479.35C1729.68 494.35 1740.63 505.9 1754.43 514C1768.53 522.1 1783.98 526.15 1800.78 526.15C1818.18 526.15 1833.78 522.25 1847.58 514.45C1861.38 506.35 1872.18 494.8 1879.98 479.8C1888.08 464.5 1892.13 446.8 1892.13 426.7ZM2089.59 553.6C2066.49 553.6 2045.64 548.5 2027.04 538.3C2008.74 527.8 1994.19 513.1 1983.39 494.2C1972.89 475 1967.64 452.65 1967.64 427.15C1967.64 401.65 1973.04 379.45 1983.84 360.55C1994.64 341.35 2009.34 326.65 2027.94 316.45C2046.54 305.95 2067.39 300.7 2090.49 300.7C2113.59 300.7 2134.44 305.95 2153.04 316.45C2171.94 326.65 2186.64 341.35 2197.14 360.55C2207.94 379.45 2213.34 401.65 2213.34 427.15C2213.34 452.35 2207.94 474.55 2197.14 493.75C2186.34 512.95 2171.49 527.8 2152.59 538.3C2133.69 548.5 2112.69 553.6 2089.59 553.6ZM2089.59 526.15C2105.79 526.15 2120.79 522.55 2134.59 515.35C2148.39 507.85 2159.49 496.75 2167.89 482.05C2176.59 467.05 2180.94 448.75 2180.94 427.15C2180.94 405.55 2176.74 387.4 2168.34 372.7C2159.94 357.7 2148.84 346.6 2135.04 339.4C2121.24 331.9 2106.24 328.15 2090.04 328.15C2073.84 328.15 2058.84 331.9 2045.04 339.4C2031.24 346.6 2020.14 357.7 2011.74 372.7C2003.64 387.4 1999.59 405.55 1999.59 427.15C1999.59 448.75 2003.64 467.05 2011.74 482.05C2020.14 496.75 2031.09 507.85 2044.59 515.35C2058.39 522.55 2073.39 526.15 2089.59 526.15ZM2399.46 550L2336.01 451L2274.81 550H2241.51L2320.71 427.15L2242.41 304.3H2277.96L2340.51 401.95L2401.26 304.3H2434.11L2355.81 425.8L2435.01 550H2399.46Z" fill="#AAAAAA"/>
<path d="M419.752 246.207L185.183 191.146C179.788 189.88 180.153 182.082 185.642 181.325L404.802 151.096C405.265 151.032 405.735 151.034 406.197 151.1L618.445 181.614C623.802 182.384 624.288 189.929 619.074 191.38L422.235 246.156C421.425 246.382 420.571 246.399 419.752 246.207Z" fill="url(#paint0_linear_94_210)" stroke="#F24E1E" stroke-opacity="0.13"/>
<path d="M402.5 618.575V305.625C402.5 296.677 396.557 288.818 387.947 286.381L159.447 221.703C146.682 218.09 134 227.68 134 240.947V511.771C134 519.537 138.496 526.601 145.531 529.89L374.031 636.693C387.292 642.892 402.5 633.213 402.5 618.575Z" fill="url(#paint1_linear_94_210)"/>
<path d="M448.5 611.763V305.314C448.5 296.755 453.947 289.144 462.049 286.383L646.549 223.513C659.524 219.092 673 228.737 673 242.444V513.965C673 521.37 668.909 528.168 662.367 531.636L477.867 629.434C464.546 636.494 448.5 626.839 448.5 611.763Z" fill="url(#paint2_linear_94_210)" stroke="#0ACF83" stroke-opacity="0.42"/>
<defs>
<linearGradient id="paint0_linear_94_210" x1="404" y1="17.9999" x2="404" y2="349" gradientUnits="userSpaceOnUse">
<stop stop-color="#DE1D1D"/>
<stop offset="1" stop-color="#FF764E"/>
</linearGradient>
<linearGradient id="paint1_linear_94_210" x1="240" y1="190" x2="240" y2="684" gradientUnits="userSpaceOnUse">
<stop stop-color="#F67255"/>
<stop offset="1" stop-color="#FFC309"/>
</linearGradient>
<linearGradient id="paint2_linear_94_210" x1="410.5" y1="315.5" x2="886.5" y2="617" gradientUnits="userSpaceOnUse">
<stop stop-color="#13FE8D"/>
<stop offset="1" stop-color="#1F996A"/>
</linearGradient>
</defs>
</svg>
