<svg width="2462" height="800" viewBox="0 0 2462 800" fill="none" xmlns="http://www.w3.org/2000/svg">
<path d="M967 552.5C942.667 552.5 920.667 548.333 901 540C881.667 531.667 866.333 519.667 855 504C843.667 488.333 837.833 469.833 837.5 448.5H912.5C913.5 462.833 918.5 474.167 927.5 482.5C936.833 490.833 949.5 495 965.5 495C981.833 495 994.667 491.167 1004 483.5C1013.33 475.5 1018 465.167 1018 452.5C1018 442.167 1014.83 433.667 1008.5 427C1002.17 420.333 994.167 415.167 984.5 411.5C975.167 407.5 962.167 403.167 945.5 398.5C922.833 391.833 904.333 385.333 890 379C876 372.333 863.833 362.5 853.5 349.5C843.5 336.167 838.5 318.5 838.5 296.5C838.5 275.833 843.667 257.833 854 242.5C864.333 227.167 878.833 215.5 897.5 207.5C916.167 199.167 937.5 195 961.5 195C997.5 195 1026.67 203.833 1049 221.5C1071.67 238.833 1084.17 263.167 1086.5 294.5H1009.5C1008.83 282.5 1003.67 272.667 994 265C984.667 257 972.167 253 956.5 253C942.833 253 931.833 256.5 923.5 263.5C915.5 270.5 911.5 280.667 911.5 294C911.5 303.333 914.5 311.167 920.5 317.5C926.833 323.5 934.5 328.5 943.5 332.5C952.833 336.167 965.833 340.5 982.5 345.5C1005.17 352.167 1023.67 358.833 1038 365.5C1052.33 372.167 1064.67 382.167 1075 395.5C1085.33 408.833 1090.5 426.333 1090.5 448C1090.5 466.667 1085.67 484 1076 500C1066.33 516 1052.17 528.833 1033.5 538.5C1014.83 547.833 992.667 552.5 967 552.5ZM1221.19 493.5H1336.19V549H1151.19V200H1221.19V493.5ZM1635.18 308C1635.18 326.667 1630.68 344.167 1621.68 360.5C1613.01 376.833 1599.18 390 1580.18 400C1561.51 410 1537.85 415 1509.18 415H1450.68V549H1380.68V200H1509.18C1536.18 200 1559.18 204.667 1578.18 214C1597.18 223.333 1611.35 236.167 1620.68 252.5C1630.35 268.833 1635.18 287.333 1635.18 308ZM1506.18 358.5C1525.51 358.5 1539.85 354.167 1549.18 345.5C1558.51 336.5 1563.18 324 1563.18 308C1563.18 274 1544.18 257 1506.18 257H1450.68V358.5H1506.18Z" fill="#131111"/>
<path d="M1717.43 357.75C1725.53 340.65 1737.98 326.7 1754.78 315.9C1771.88 305.1 1791.98 299.7 1815.08 299.7C1837.58 299.7 1857.68 304.95 1875.38 315.45C1893.08 325.65 1906.88 340.35 1916.78 359.55C1926.98 378.45 1932.08 400.5 1932.08 425.7C1932.08 450.9 1926.98 473.1 1916.78 492.3C1906.88 511.5 1892.93 526.35 1874.93 536.85C1857.23 547.35 1837.28 552.6 1815.08 552.6C1791.68 552.6 1771.43 547.35 1754.33 536.85C1737.53 526.05 1725.23 512.1 1717.43 495V549H1686.38V216H1717.43V357.75ZM1900.13 425.7C1900.13 405.3 1896.08 387.75 1887.98 373.05C1880.18 358.05 1869.38 346.65 1855.58 338.85C1841.78 331.05 1826.18 327.15 1808.78 327.15C1791.98 327.15 1776.53 331.2 1762.43 339.3C1748.63 347.4 1737.68 358.95 1729.58 373.95C1721.48 388.95 1717.43 406.35 1717.43 426.15C1717.43 445.95 1721.48 463.35 1729.58 478.35C1737.68 493.35 1748.63 504.9 1762.43 513C1776.53 521.1 1791.98 525.15 1808.78 525.15C1826.18 525.15 1841.78 521.25 1855.58 513.45C1869.38 505.35 1880.18 493.8 1887.98 478.8C1896.08 463.5 1900.13 445.8 1900.13 425.7ZM2097.59 552.6C2074.49 552.6 2053.64 547.5 2035.04 537.3C2016.74 526.8 2002.19 512.1 1991.39 493.2C1980.89 474 1975.64 451.65 1975.64 426.15C1975.64 400.65 1981.04 378.45 1991.84 359.55C2002.64 340.35 2017.34 325.65 2035.94 315.45C2054.54 304.95 2075.39 299.7 2098.49 299.7C2121.59 299.7 2142.44 304.95 2161.04 315.45C2179.94 325.65 2194.64 340.35 2205.14 359.55C2215.94 378.45 2221.34 400.65 2221.34 426.15C2221.34 451.35 2215.94 473.55 2205.14 492.75C2194.34 511.95 2179.49 526.8 2160.59 537.3C2141.69 547.5 2120.69 552.6 2097.59 552.6ZM2097.59 525.15C2113.79 525.15 2128.79 521.55 2142.59 514.35C2156.39 506.85 2167.49 495.75 2175.89 481.05C2184.59 466.05 2188.94 447.75 2188.94 426.15C2188.94 404.55 2184.74 386.4 2176.34 371.7C2167.94 356.7 2156.84 345.6 2143.04 338.4C2129.24 330.9 2114.24 327.15 2098.04 327.15C2081.84 327.15 2066.84 330.9 2053.04 338.4C2039.24 345.6 2028.14 356.7 2019.74 371.7C2011.64 386.4 2007.59 404.55 2007.59 426.15C2007.59 447.75 2011.64 466.05 2019.74 481.05C2028.14 495.75 2039.09 506.85 2052.59 514.35C2066.39 521.55 2081.39 525.15 2097.59 525.15ZM2407.46 549L2344.01 450L2282.81 549H2249.51L2328.71 426.15L2250.41 303.3H2285.96L2348.51 400.95L2409.26 303.3H2442.11L2363.81 424.8L2443.01 549H2407.46Z" fill="#2A2828"/>
<path d="M415.752 246.207L181.183 191.146C175.788 189.88 176.153 182.082 181.642 181.325L400.802 151.096C401.265 151.032 401.735 151.034 402.197 151.1L614.445 181.614C619.802 182.384 620.288 189.929 615.074 191.38L418.235 246.156C417.425 246.382 416.571 246.399 415.752 246.207Z" fill="url(#paint0_linear_93_206)" stroke="#F24E1E" stroke-opacity="0.13"/>
<path d="M398.5 618.575V305.625C398.5 296.677 392.557 288.818 383.947 286.381L155.447 221.703C142.682 218.09 130 227.68 130 240.947V511.771C130 519.537 134.496 526.601 141.531 529.89L370.031 636.693C383.292 642.892 398.5 633.213 398.5 618.575Z" fill="url(#paint1_linear_93_206)"/>
<path d="M444.5 611.763V305.314C444.5 296.755 449.947 289.144 458.049 286.383L642.549 223.513C655.524 219.092 669 228.737 669 242.444V513.965C669 521.37 664.909 528.168 658.367 531.636L473.867 629.434C460.546 636.494 444.5 626.839 444.5 611.763Z" fill="url(#paint2_linear_93_206)" stroke="#0ACF83" stroke-opacity="0.42"/>
<defs>
<linearGradient id="paint0_linear_93_206" x1="400" y1="17.9999" x2="400" y2="349" gradientUnits="userSpaceOnUse">
<stop stop-color="#DE1D1D"/>
<stop offset="1" stop-color="#FF764E"/>
</linearGradient>
<linearGradient id="paint1_linear_93_206" x1="236" y1="190" x2="236" y2="684" gradientUnits="userSpaceOnUse">
<stop stop-color="#F67255"/>
<stop offset="1" stop-color="#FFC309"/>
</linearGradient>
<linearGradient id="paint2_linear_93_206" x1="406.5" y1="315.5" x2="882.5" y2="617" gradientUnits="userSpaceOnUse">
<stop stop-color="#13FE8D"/>
<stop offset="1" stop-color="#1F996A"/>
</linearGradient>
</defs>
</svg>
